<svg version="1.1" id="Capa_1" xmlns="http://www.w3.org/2000/svg" xmlns:xlink="http://www.w3.org/1999/xlink" x="0px" y="0px"	 viewBox="0 0 456.192 456.192" style="enable-background:new 0 0 456.192 456.192;" xml:space="preserve"><g>	<g>		<path d="M404.992,88.576H51.2C23.04,89.088,0,112.128,0,139.776v176.64c0,27.648,23.04,51.2,51.2,51.2h353.792			c27.648,0,51.2-23.04,51.2-51.2v-176.64C456.192,112.128,433.152,88.576,404.992,88.576z M248.32,139.776h54.272v33.792H248.32			V139.776z M248.32,214.016h54.272v34.304H248.32V214.016z M153.088,139.776h54.272v33.792h-54.272V139.776z M153.088,214.016			h54.272v34.304h-54.272V214.016z M112.128,248.32H57.856v-34.304h54.272V248.32z M112.128,173.568H57.856v-33.792h54.272V173.568z			 M327.168,323.584h-184.32v-33.792h184.32V323.584z M397.824,248.32h-54.272v-34.304h54.272V248.32z M397.824,173.568h-54.272			v-33.792h54.272V173.568z"/>	</g></g><g></g><g></g><g></g><g></g><g></g><g></g><g></g><g></g><g></g><g></g><g></g><g></g><g></g><g></g><g></g></svg>
