<svg id="Capa_1" enable-background="new 0 0 512 512" height="512" viewBox="0 0 512 512" width="512" xmlns="http://www.w3.org/2000/svg"><g id="XMLID_1416_"><g id="XMLID_1534_"><g id="XMLID_1535_"><path id="XMLID_1565_" d="m338 138.936v-38.853c0-16.542-13.458-30-30-30h-11v-60.083c0-5.522-4.477-10-10-10h-62c-5.523 0-10 4.478-10 10v25.042h-44.854c-11.171 0-22.084 1.692-32.565 5.027-11.969-23.739-36.563-40.069-64.914-40.069-40.069 0-72.667 32.599-72.667 72.667s32.598 72.666 72.667 72.666 72.667-32.598 72.667-72.666c0-4.67-.46-9.233-1.306-13.661 8.406-2.63 17.158-3.964 26.119-3.964h44.853v15.041h-11c-16.542 0-30 13.458-30 30v38.853c-75.166 32.004-128 106.608-128 193.324 0 36.273 9.402 72.03 27.19 103.405 17.241 30.41 42.039 56.281 71.714 74.816 1.588.992 3.424 1.519 5.297 1.519h211.597c1.873 0 3.709-.526 5.297-1.519 29.675-18.535 54.473-44.406 71.714-74.816 17.789-31.375 27.191-67.132 27.191-103.405 0-86.716-52.834-161.32-128-193.324zm-265.333-13.603c-29.041 0-52.667-23.626-52.667-52.666 0-29.041 23.626-52.667 52.667-52.667s52.667 23.626 52.667 52.667c-.001 29.04-23.627 52.666-52.667 52.666zm162.333-105.333h42v16.391c-2.986 1.73-5 4.952-5 8.651s2.014 6.921 5 8.651v16.39h-42zm-41 80.083c0-5.514 4.486-10 10-10h21 62 21c5.514 0 10 4.486 10 10v31.521c-19.605-6.07-40.427-9.344-62-9.344s-42.395 3.274-62 9.344zm164.893 391.917h-205.786c-54.603-35.212-87.107-94.711-87.107-159.74 0-104.767 85.233-190 190-190s190 85.233 190 190c0 65.029-32.504 124.528-87.107 159.74z"/><path id="XMLID_1560_" d="m303.463 173.173c-5.292-1.584-10.863 1.427-12.444 6.718s1.426 10.863 6.718 12.444c58.459 17.471 100.128 70.484 103.972 130.805-25.45 23.389-60.514 31.841-93.394 23.085l4.903-4.903c17.154-17.154 17.154-45.065 0-62.22-14.956-14.956-38.089-16.87-55.14-5.75-7.087-4.645-15.376-7.136-24.047-7.136-11.751 0-22.8 4.576-31.11 12.886-2.269 2.269-4.229 4.73-5.897 7.326-29.641-4.764-59.478 1.638-84.223 17.654 10.446-52.236 49.304-96.206 101.579-111.781 5.293-1.577 8.305-7.146 6.728-12.439s-7.145-8.302-12.439-6.729c-33.555 9.998-63.753 30.968-85.033 59.049-22.006 29.036-33.636 63.642-33.636 100.078 0 26.137 6.184 52.139 17.882 75.193 11.657 22.975 28.896 43.241 49.854 58.61 1.715 1.259 3.787 1.937 5.914 1.937h184.701c2.127 0 4.199-.678 5.914-1.937 20.958-15.369 38.197-35.636 49.854-58.61 11.697-23.055 17.881-49.057 17.881-75.193 0-36.411-11.617-70.999-33.594-100.024-21.254-28.069-51.42-49.045-84.943-59.063zm-69.433 113.044c6.41 0 12.436 2.496 16.967 7.028 1.875 1.875 4.419 2.929 7.071 2.929s5.196-1.054 7.071-2.929c4.532-4.532 10.558-7.028 16.967-7.028s12.435 2.496 16.967 7.028c4.533 4.532 7.028 10.558 7.028 16.967 0 6.41-2.496 12.436-7.028 16.968l-41.006 41.006-41.006-41.006c-9.356-9.355-9.356-24.579 0-33.935 4.534-4.532 10.56-7.028 16.969-7.028zm110.989 161.783h-178.038c-36.257-27.796-56.981-69.795-56.981-115.74 0-.261.007-.52.008-.781 21.808-20.138 51.014-29.461 80.287-25.816-1.312 12.73 2.892 25.926 12.625 35.659l41.059 41.059c3.885 3.884 8.987 5.826 14.089 5.826s10.205-1.942 14.09-5.826l20.237-20.237c13.328 4.905 27.328 7.389 41.443 7.389 7.31 0 14.654-.666 21.947-2.007 16.343-3.006 31.68-9.295 45.275-18.462-4.413 39.287-24.257 74.569-56.041 98.936z"/><path id="XMLID_1559_" d="m256.06 186.319c2.64 0 5.21-1.06 7.07-2.93 1.87-1.859 2.93-4.43 2.93-7.07 0-2.63-1.06-5.21-2.93-7.069-1.86-1.86-4.43-2.931-7.07-2.931-2.63 0-5.21 1.07-7.07 2.931-1.86 1.859-2.93 4.439-2.93 7.069 0 2.641 1.07 5.211 2.93 7.07 1.86 1.871 4.44 2.93 7.07 2.93z"/><g id="XMLID_1627_"><g id="XMLID_1557_"><path id="XMLID_1558_" d="m361 75.042h-5c-5.523 0-10-4.478-10-10s4.477-10 10-10h5c5.523 0 10 4.478 10 10s-4.477 10-10 10z"/></g><g id="XMLID_1552_"><path id="XMLID_1553_" d="m457.631 75.042h-8.947c-5.523 0-10-4.478-10-10s4.477-10 10-10h8.947c5.523 0 10 4.478 10 10s-4.477 10-10 10zm-48.316 0h-8.947c-5.523 0-10-4.478-10-10s4.477-10 10-10h8.947c5.523 0 10 4.478 10 10s-4.477 10-10 10z"/></g><g id="XMLID_1549_"><path id="XMLID_1551_" d="m502 75.042h-5c-5.523 0-10-4.478-10-10s4.477-10 10-10h5c5.523 0 10 4.478 10 10s-4.477 10-10 10z"/></g></g><g id="XMLID_1538_"><g id="XMLID_1547_"><path id="XMLID_1548_" d="m361 35.042h-5c-5.523 0-10-4.478-10-10s4.477-10 10-10h5c5.523 0 10 4.478 10 10s-4.477 10-10 10z"/></g><g id="XMLID_1542_"><path id="XMLID_1543_" d="m457.631 35.042h-8.947c-5.523 0-10-4.478-10-10s4.477-10 10-10h8.947c5.523 0 10 4.478 10 10s-4.477 10-10 10zm-48.316 0h-8.947c-5.523 0-10-4.478-10-10s4.477-10 10-10h8.947c5.523 0 10 4.478 10 10s-4.477 10-10 10z"/></g><g id="XMLID_1539_"><path id="XMLID_1541_" d="m502 35.042h-5c-5.523 0-10-4.478-10-10s4.477-10 10-10h5c5.523 0 10 4.478 10 10s-4.477 10-10 10z"/></g></g></g></g></g></svg>
